<?xml version="1.0" standalone="no"?>
<!DOCTYPE svg PUBLIC "-//W3C//DTD SVG 20010904//EN"
 "http://www.w3.org/TR/2001/REC-SVG-20010904/DTD/svg10.dtd">
<svg version="1.0" xmlns="http://www.w3.org/2000/svg"
 width="900.000000pt" height="471.000000pt" viewBox="0 0 900.000000 471.000000"
 preserveAspectRatio="xMidYMid meet">
<metadata>
Created by potrace 1.10, written by Peter Selinger 2001-2011
</metadata>
<g transform="translate(0.000000,471.000000) scale(0.100000,-0.100000)"
fill="#000000" stroke="none">
<path d="M1180 4183 c-8 -3 -30 -21 -47 -39 l-33 -33 0 -1009 c0 -1008 0
-1009 21 -1036 46 -59 -12 -56 1079 -56 1109 0 1018 -5 1080 64 l26 28 25 -28
c58 -69 -30 -64 1079 -64 728 0 1007 3 1023 11 12 7 36 27 54 46 l32 34 45
-46 45 -45 1010 0 c1129 0 1047 -5 1091 72 20 36 20 42 18 1033 l-3 996 -42
40 -42 39 -1017 0 -1017 0 -43 -44 -42 -45 -29 27 c-70 67 29 62 -1087 62
l-1009 0 -45 -45 c-24 -25 -46 -45 -47 -45 -1 0 -23 20 -47 45 l-45 45 -1009
-1 c-555 0 -1016 -3 -1024 -6z m6133 -270 c80 -37 135 -103 155 -185 17 -66
17 -1190 0 -1256 -20 -82 -69 -139 -158 -188 -34 -19 -105 -19 -2895 -19
l-2860 0 -45 22 c-79 38 -124 90 -153 177 -15 44 -17 116 -17 636 0 641 0 638
59 722 35 49 112 98 169 108 26 4 1318 7 2872 6 l2825 -1 48 -22z"/>
<path d="M7234 3783 c-22 -44 -77 -98 -116 -114 -36 -15 -36 -36 1 -44 34 -7
88 -59 110 -106 21 -42 37 -47 44 -12 7 36 69 101 114 119 18 8 33 19 33 24 0
5 -15 16 -33 24 -45 18 -104 81 -112 117 -9 39 -18 37 -41 -8z"/>
<path d="M1736 3565 c-10 -27 -7 -888 4 -905 8 -13 51 -15 290 -15 239 0 282
2 290 15 11 17 14 159 4 184 -5 14 -30 16 -173 16 -129 0 -172 3 -187 14 -18
14 -19 33 -24 358 l-5 343 -96 3 c-81 2 -98 0 -103 -13z"/>
<path d="M2443 3573 c-10 -4 -13 -105 -13 -457 l0 -453 23 -10 c13 -6 131 -10
298 -9 218 1 279 4 292 15 13 10 17 31 17 95 0 44 -4 86 -8 93 -5 8 -64 13
-194 15 -102 2 -190 6 -193 10 -14 14 -9 109 6 119 8 5 67 9 131 9 142 0 148
5 148 115 -1 102 -2 103 -152 107 -70 1 -130 6 -133 10 -13 13 -8 110 6 119 8
5 94 9 191 9 165 0 178 1 188 19 14 28 13 174 -2 189 -9 9 -89 12 -302 11
-160 0 -297 -3 -303 -6z"/>
<path d="M3143 3565 c-5 -16 -1 -41 31 -177 34 -142 54 -229 90 -393 9 -38 23
-99 32 -135 8 -36 21 -93 27 -127 17 -88 26 -93 181 -91 148 1 157 6 174 103
6 33 18 89 26 125 46 198 89 385 120 525 8 39 19 88 25 110 18 71 13 75 -99
75 l-98 0 -16 -34 c-9 -19 -16 -46 -16 -61 0 -14 -4 -34 -10 -44 -5 -10 -14
-43 -19 -72 -6 -30 -17 -85 -26 -124 -9 -38 -21 -97 -27 -130 -12 -67 -24 -87
-47 -83 -11 2 -19 24 -28 68 -7 36 -19 95 -28 133 -40 174 -47 206 -57 257
-16 84 -25 90 -135 90 -75 0 -95 -3 -100 -15z"/>
<path d="M3981 3566 c-9 -10 -12 -133 -11 -452 0 -363 3 -441 15 -454 12 -13
52 -15 298 -15 226 0 288 3 301 14 14 12 16 30 14 105 l-3 91 -186 5 c-212 6
-219 8 -219 76 0 58 14 64 153 64 91 0 117 3 127 15 15 18 18 181 4 195 -5 5
-67 10 -137 12 -143 3 -147 5 -147 75 0 32 5 45 19 53 12 6 93 10 193 10 122
0 178 4 186 12 16 16 16 180 0 196 -19 19 -591 17 -607 -2z"/>
<path d="M4730 3561 c-6 -13 -10 -174 -10 -454 0 -401 1 -435 18 -450 14 -13
56 -15 276 -16 318 -2 306 -6 306 108 0 44 -3 86 -6 95 -5 14 -29 16 -164 16
-87 0 -170 4 -184 10 l-26 10 0 327 c0 181 -3 338 -6 351 -6 21 -11 22 -100
22 -82 0 -95 -2 -104 -19z"/>
<path d="M5635 3557 c-3 -12 -5 -182 -3 -377 3 -344 4 -356 25 -396 31 -59 79
-103 140 -131 45 -21 68 -24 162 -24 90 0 118 4 160 21 55 24 141 108 141 138
0 10 6 24 13 30 9 10 13 100 15 365 2 193 0 362 -3 375 -5 22 -9 23 -103 20
l-97 -3 -5 -320 c-6 -340 -10 -369 -55 -399 -38 -25 -117 -21 -142 7 -39 43
-43 78 -43 388 0 163 -3 304 -6 313 -5 13 -24 16 -100 16 -89 0 -94 -1 -99
-23z"/>
<path d="M6447 3573 c-4 -3 -7 -210 -7 -460 0 -521 -13 -468 113 -468 58 0 80
4 87 15 5 8 10 70 10 137 0 141 1 143 92 143 77 0 193 27 238 55 78 49 110
125 110 263 0 123 -19 182 -80 242 -65 66 -129 80 -371 80 -102 0 -189 -3
-192 -7z m393 -223 c28 -15 43 -81 30 -130 -13 -49 -36 -60 -121 -60 -93 0
-99 6 -99 100 0 65 3 81 18 89 22 13 148 14 172 1z"/>
<path d="M1148 1525 c-19 -13 -41 -39 -47 -56 -6 -19 -11 -107 -11 -216 0
-206 6 -235 61 -274 30 -21 44 -24 134 -24 85 0 105 3 134 22 61 39 71 65 71
185 0 58 -3 113 -6 122 -5 13 -24 16 -100 16 -92 0 -94 -1 -100 -25 -8 -34 1
-53 31 -65 23 -9 25 -14 25 -73 0 -49 -4 -68 -18 -80 -25 -23 -59 -21 -72 3
-11 21 -15 355 -4 383 8 21 67 32 113 21 26 -7 37 -15 39 -31 4 -24 35 -38 69
-31 43 9 1 118 -54 139 -13 5 -70 9 -126 9 -92 0 -106 -2 -139 -25z"/>
<path d="M1649 1533 c-67 -46 -64 -31 -64 -317 l0 -261 59 -3 c32 -2 63 1 69
7 5 5 9 54 8 108 -3 127 7 153 53 153 49 0 56 -19 56 -148 0 -105 1 -110 23
-116 37 -10 102 -7 115 6 15 15 17 421 2 482 -5 22 -23 53 -39 70 -31 31 -33
31 -144 34 -94 2 -116 0 -138 -15z m171 -80 c3 -3 5 -37 5 -76 l0 -72 -44 -3
c-52 -4 -61 6 -61 65 0 77 24 108 75 95 11 -2 22 -7 25 -9z"/>
<path d="M2068 1540 c-1 -5 -1 -139 2 -297 l5 -288 35 0 35 0 3 150 c1 82 7
154 12 159 5 5 47 -28 104 -83 79 -76 98 -90 113 -82 10 5 54 46 97 90 61 62
83 78 93 69 10 -8 13 -48 13 -154 l0 -143 33 -6 c18 -4 49 -5 68 -3 l34 3 0
295 0 295 -35 3 c-33 3 -43 -5 -159 -123 -68 -69 -131 -125 -140 -125 -8 0
-72 56 -141 125 -118 117 -161 146 -172 115z"/>
<path d="M2817 1543 c-4 -3 -7 -133 -7 -288 0 -205 3 -284 12 -293 14 -14 295
-17 316 -3 8 5 12 22 10 42 l-3 34 -90 5 -90 5 -3 75 c-3 87 6 100 75 100 49
0 62 16 45 55 -9 20 -19 24 -64 27 l-53 3 -3 74 c-2 53 1 77 10 82 7 5 50 9
94 9 81 0 82 0 87 28 9 48 -2 52 -173 52 -86 0 -160 -3 -163 -7z"/>
<path d="M3302 1529 c-44 -29 -62 -67 -62 -132 0 -52 26 -110 64 -142 31 -27
114 -133 119 -152 2 -12 -2 -31 -10 -42 -21 -31 -58 -27 -85 9 -16 23 -30 30
-55 30 -29 0 -33 -3 -33 -25 0 -36 24 -79 57 -101 21 -14 47 -18 105 -19 70 0
79 3 114 30 24 20 42 46 52 77 20 65 3 119 -60 189 -26 30 -67 78 -90 107 -36
47 -40 55 -30 77 6 13 23 28 38 31 22 6 31 2 46 -17 37 -49 40 -51 71 -45 17
3 32 7 33 9 2 1 -4 24 -13 50 -22 66 -58 87 -154 87 -58 0 -81 -5 -107 -21z"/>
<path d="M3934 1528 c-77 -54 -86 -144 -21 -215 19 -22 19 -23 1 -50 -37 -55
-44 -76 -44 -133 0 -136 97 -201 265 -176 61 10 135 78 135 125 0 45 17 81 38
81 10 0 34 16 52 35 32 33 35 41 35 98 l0 62 -37 3 c-34 3 -38 1 -38 -21 0
-62 -12 -86 -47 -98 -20 -6 -55 -9 -78 -6 -25 2 -48 0 -54 -6 -6 -6 -11 -40
-11 -77 -1 -49 -5 -71 -19 -87 -46 -55 -101 -7 -101 86 0 45 4 54 35 82 20 19
35 42 35 55 0 22 -23 54 -39 54 -9 0 -31 45 -31 64 0 15 45 66 58 66 26 0 56
-39 61 -81 l6 -44 64 -3 c44 -2 67 1 72 10 12 19 0 96 -21 130 -34 57 -63 68
-180 68 -92 0 -109 -3 -136 -22z"/>
<path d="M4705 1538 c-3 -7 -4 -141 -3 -298 l3 -285 34 -3 c19 -2 50 -1 68 3
l33 6 0 114 c0 90 3 117 16 129 18 19 70 21 81 4 4 -7 10 -67 13 -133 l5 -120
65 0 65 0 0 295 0 295 -67 3 c-50 2 -68 0 -69 -10 0 -7 0 -54 1 -105 2 -126
-1 -133 -55 -133 -53 0 -54 1 -58 145 l-2 100 -63 3 c-44 2 -64 -1 -67 -10z"/>
<path d="M5264 1540 c-12 -5 -35 -25 -50 -46 l-29 -37 -3 -189 c-3 -176 -2
-191 18 -231 33 -65 72 -82 190 -82 90 0 99 2 133 28 60 46 67 75 67 276 -1
198 -9 227 -69 268 -30 20 -46 23 -135 22 -56 0 -111 -4 -122 -9z m152 -84
c17 -13 19 -30 22 -190 3 -150 1 -178 -14 -200 -21 -33 -57 -34 -78 -1 -13 20
-16 55 -16 193 0 155 2 170 20 190 24 26 39 27 66 8z"/>
<path d="M5683 1543 c-10 -3 -13 -71 -13 -288 0 -279 0 -285 21 -296 14 -7 67
-10 153 -7 150 5 180 16 217 81 29 53 23 131 -14 181 -33 43 -33 48 -2 82 62
67 32 213 -52 245 -25 9 -288 12 -310 2z m227 -93 c26 -26 28 -105 3 -132 -18
-20 -63 -24 -81 -6 -7 7 -12 39 -12 73 0 34 5 66 12 73 18 18 56 14 78 -8z
m-2 -249 c18 -16 22 -29 22 -72 0 -61 -19 -89 -61 -89 -36 0 -49 24 -49 91 0
80 38 111 88 70z"/>
<path d="M6175 1538 c-3 -7 -4 -141 -3 -298 l3 -285 110 -3 c156 -4 188 2 235
47 39 37 40 39 40 107 0 42 -6 79 -15 94 -40 69 -40 68 -14 89 21 17 24 29 27
99 4 80 4 80 -31 119 l-35 38 -156 3 c-123 3 -157 1 -161 -10z m233 -96 c18
-22 11 -120 -9 -133 -24 -15 -76 -11 -83 7 -11 28 -6 130 7 143 16 16 68 6 85
-17z m-25 -233 c31 -17 37 -28 37 -79 0 -60 -21 -90 -64 -90 -40 0 -46 11 -46
86 0 86 21 110 73 83z"/>
<path d="M6687 1544 c-4 -4 -7 -137 -7 -295 0 -252 2 -288 16 -293 23 -9 107
-7 122 2 9 7 12 73 10 298 l-3 289 -65 3 c-36 2 -69 0 -73 -4z"/>
<path d="M6955 1538 c-3 -7 -4 -141 -3 -298 l3 -285 160 0 160 0 0 40 0 40
-86 3 c-80 3 -87 5 -93 25 -9 34 -7 103 4 131 8 23 15 26 60 26 55 0 67 11 56
55 -6 23 -11 25 -60 25 -62 0 -66 5 -66 81 0 83 7 89 106 89 l85 0 -3 38 -3
37 -158 3 c-121 2 -159 0 -162 -10z"/>
<path d="M7433 1529 c-45 -28 -66 -80 -61 -145 5 -57 30 -96 138 -214 52 -57
61 -87 34 -114 -26 -26 -63 -20 -82 14 -15 26 -22 30 -52 28 -42 -4 -48 -22
-24 -73 41 -86 196 -100 275 -25 38 36 39 38 39 108 0 67 -2 73 -39 119 -21
26 -61 73 -89 103 -58 63 -69 110 -31 130 30 17 66 5 73 -24 4 -17 15 -26 36
-31 37 -8 50 0 50 30 0 41 -18 74 -52 95 -47 28 -170 28 -215 -1z"/>
<path d="M5712 697 c-7 -8 -9 -17 -5 -20 10 -10 -29 -48 -43 -43 -18 7 -36
-19 -32 -46 2 -17 11 -24 31 -26 28 -3 54 -43 41 -63 -7 -12 41 -30 61 -23 8
4 15 18 15 33 0 35 17 51 52 51 25 0 28 4 28 33 0 30 -4 34 -37 43 -31 7 -39
14 -43 39 -4 23 -11 31 -31 33 -14 2 -31 -3 -37 -11z"/>
<path d="M1103 621 c-8 -7 -13 -23 -11 -35 l3 -21 800 0 c792 0 800 0 803 20
6 47 31 45 -798 48 -654 2 -786 0 -797 -12z"/>
<path d="M2873 621 c-8 -7 -13 -23 -11 -35 3 -20 10 -21 109 -24 84 -2 109 0
118 12 9 11 10 20 1 35 -6 12 -14 21 -18 21 -107 7 -188 3 -199 -9z"/>
<path d="M3270 632 c-20 -7 -32 -42 -19 -58 9 -12 72 -14 384 -14 401 0 411 1
385 49 -6 12 -14 21 -18 21 -151 3 -725 4 -732 2z"/>
<path d="M4184 619 c-22 -25 -10 -52 26 -57 33 -5 52 22 38 54 -14 29 -39 31
-64 3z"/>
<path d="M4410 621 c-16 -31 -12 -51 13 -60 45 -17 82 25 52 59 -23 25 -51 26
-65 1z"/>
<path d="M5023 632 l-403 -2 0 -35 0 -35 413 2 412 3 3 26 c2 14 -3 30 -10 35
-7 5 -184 8 -415 6z"/>
<path d="M6023 624 c-8 -5 -13 -21 -11 -35 l3 -24 835 0 835 0 3 32 3 33 -827
2 c-569 2 -832 0 -841 -8z"/>
</g>
</svg>
