<svg xmlns="http://www.w3.org/2000/svg" xmlns:xlink="http://www.w3.org/1999/xlink" width="1080" zoomAndPan="magnify" viewBox="0 0 810 809.999993" height="1080" preserveAspectRatio="xMidYMid meet" version="1.0"><path fill="#000000" d="M 106.207031 222.316406 C 105.488281 222.585938 103.507812 224.207031 101.976562 225.828125 L 99.007812 228.796875 L 99.007812 319.574219 C 99.007812 410.261719 99.007812 410.351562 100.898438 412.78125 C 105.035156 418.089844 99.816406 417.820312 198.003906 417.820312 C 297.8125 417.820312 289.621094 418.269531 295.203125 412.058594 L 297.542969 409.542969 L 299.792969 412.058594 C 305.011719 418.269531 297.09375 417.820312 396.898438 417.820312 C 462.417969 417.820312 487.527344 417.546875 488.96875 416.828125 C 490.046875 416.199219 492.207031 414.398438 493.828125 412.691406 L 496.707031 409.632812 L 500.757812 413.769531 L 504.808594 417.820312 L 595.707031 417.820312 C 697.3125 417.820312 689.933594 418.269531 693.894531 411.339844 C 695.695312 408.101562 695.695312 407.5625 695.511719 318.402344 L 695.242188 228.796875 L 691.464844 225.195312 L 687.683594 221.6875 L 504.628906 221.6875 L 500.757812 225.648438 L 496.976562 229.695312 L 494.367188 227.265625 C 488.066406 221.238281 496.976562 221.6875 396.539062 221.6875 L 305.730469 221.6875 L 301.683594 225.738281 C 299.523438 227.984375 297.542969 229.785156 297.453125 229.785156 C 297.363281 229.785156 295.382812 227.984375 293.222656 225.738281 L 289.171875 221.6875 L 198.363281 221.777344 C 148.414062 221.777344 106.925781 222.046875 106.207031 222.316406 Z M 658.164062 246.609375 C 665.363281 249.9375 670.3125 255.875 672.113281 263.253906 C 673.644531 269.191406 673.644531 370.316406 672.113281 376.253906 C 670.3125 383.628906 665.902344 388.757812 657.894531 393.167969 C 654.835938 394.875 648.445312 394.875 397.351562 394.875 L 139.957031 394.875 L 135.90625 392.898438 C 128.796875 389.480469 124.746094 384.800781 122.136719 376.972656 C 120.785156 373.015625 120.605469 366.535156 120.605469 319.753906 C 120.605469 262.082031 120.605469 262.355469 125.917969 254.796875 C 129.066406 250.386719 135.996094 245.980469 141.125 245.078125 C 143.464844 244.71875 259.742188 244.449219 399.601562 244.539062 L 653.84375 244.628906 Z M 658.164062 246.609375 " fill-opacity="1" fill-rule="nonzero"/><path fill="#000000" d="M 651.054688 258.304688 C 649.074219 262.261719 644.125 267.121094 640.613281 268.5625 C 637.375 269.910156 637.375 271.800781 640.703125 272.519531 C 643.765625 273.148438 648.625 277.828125 650.605469 282.054688 C 652.496094 285.835938 653.933594 286.285156 654.566406 283.136719 C 655.195312 279.898438 660.773438 274.050781 664.824219 272.429688 C 666.445312 271.710938 667.792969 270.71875 667.792969 270.269531 C 667.792969 269.820312 666.445312 268.832031 664.824219 268.113281 C 660.773438 266.492188 655.464844 260.824219 654.746094 257.585938 C 653.933594 254.078125 653.125 254.257812 651.054688 258.304688 Z M 651.054688 258.304688 " fill-opacity="1" fill-rule="nonzero"/><path fill="#000000" d="M 156.246094 277.917969 C 155.34375 280.347656 155.617188 357.808594 156.605469 359.339844 C 157.324219 360.507812 161.195312 360.6875 182.703125 360.6875 C 204.214844 360.6875 208.085938 360.507812 208.804688 359.339844 C 209.792969 357.808594 210.0625 345.035156 209.164062 342.785156 C 208.714844 341.527344 206.464844 341.34375 193.59375 341.34375 C 181.984375 341.34375 178.113281 341.074219 176.765625 340.085938 C 175.144531 338.828125 175.054688 337.117188 174.605469 307.878906 L 174.15625 277.019531 L 165.515625 276.75 C 158.226562 276.570312 156.695312 276.75 156.246094 277.917969 Z M 156.246094 277.917969 " fill-opacity="1" fill-rule="nonzero"/><path fill="#000000" d="M 219.875 277.199219 C 218.972656 277.558594 218.703125 286.644531 218.703125 318.3125 L 218.703125 359.070312 L 220.773438 359.96875 C 221.945312 360.507812 232.5625 360.867188 247.59375 360.777344 C 267.214844 360.6875 272.703125 360.417969 273.871094 359.429688 C 275.042969 358.53125 275.402344 356.640625 275.402344 350.882812 C 275.402344 346.921875 275.042969 343.144531 274.683594 342.515625 C 274.234375 341.796875 268.921875 341.34375 257.222656 341.164062 C 248.042969 340.984375 240.125 340.625 239.855469 340.265625 C 238.59375 339.007812 239.042969 330.460938 240.394531 329.558594 C 241.113281 329.109375 246.421875 328.75 252.183594 328.75 C 264.964844 328.75 265.503906 328.300781 265.503906 318.402344 C 265.414062 309.226562 265.324219 309.136719 251.824219 308.777344 C 245.523438 308.6875 240.125 308.238281 239.855469 307.878906 C 238.683594 306.707031 239.132812 297.980469 240.394531 297.171875 C 241.113281 296.722656 248.851562 296.363281 257.582031 296.363281 C 272.433594 296.363281 273.601562 296.273438 274.503906 294.652344 C 275.761719 292.132812 275.671875 278.996094 274.324219 277.648438 C 273.511719 276.839844 266.3125 276.570312 247.144531 276.660156 C 232.742188 276.660156 220.414062 276.929688 219.875 277.199219 Z M 219.875 277.199219 " fill-opacity="1" fill-rule="nonzero"/><path fill="#000000" d="M 282.871094 277.917969 C 282.421875 279.359375 282.78125 281.605469 285.664062 293.84375 C 288.722656 306.617188 290.523438 314.445312 293.761719 329.199219 C 294.574219 332.617188 295.832031 338.105469 296.640625 341.34375 C 297.363281 344.585938 298.53125 349.710938 299.074219 352.773438 C 300.601562 360.6875 301.414062 361.136719 315.363281 360.957031 C 328.683594 360.867188 329.492188 360.417969 331.023438 351.691406 C 331.5625 348.722656 332.640625 343.683594 333.363281 340.445312 C 337.5 322.632812 341.371094 305.808594 344.160156 293.210938 C 344.882812 289.703125 345.871094 285.296875 346.410156 283.316406 C 348.03125 276.929688 347.582031 276.570312 337.5 276.570312 L 328.683594 276.570312 L 327.242188 279.628906 C 326.433594 281.335938 325.800781 283.765625 325.800781 285.117188 C 325.800781 286.375 325.441406 288.175781 324.902344 289.074219 C 324.453125 289.972656 323.640625 292.941406 323.191406 295.550781 C 322.652344 298.25 321.660156 303.199219 320.851562 306.707031 C 320.042969 310.125 318.960938 315.433594 318.421875 318.402344 C 317.34375 324.429688 316.261719 326.230469 314.191406 325.871094 C 313.203125 325.691406 312.480469 323.710938 311.671875 319.753906 C 311.042969 316.515625 309.960938 311.207031 309.152344 307.789062 C 305.550781 292.132812 304.921875 289.253906 304.023438 284.664062 C 302.582031 277.109375 301.773438 276.570312 291.871094 276.570312 C 285.121094 276.570312 283.324219 276.839844 282.871094 277.917969 Z M 282.871094 277.917969 " fill-opacity="1" fill-rule="nonzero"/><path fill="#000000" d="M 358.292969 277.828125 C 357.480469 278.726562 357.210938 289.792969 357.300781 318.492188 C 357.300781 351.152344 357.570312 358.167969 358.652344 359.339844 C 359.730469 360.507812 363.332031 360.6875 385.46875 360.6875 C 405.808594 360.6875 411.390625 360.417969 412.558594 359.429688 C 413.820312 358.347656 414 356.730469 413.820312 349.984375 L 413.550781 341.796875 L 396.808594 341.34375 C 377.730469 340.804688 377.101562 340.625 377.101562 334.507812 C 377.101562 329.289062 378.359375 328.75 390.871094 328.75 C 399.058594 328.75 401.398438 328.480469 402.300781 327.402344 C 403.648438 325.78125 403.921875 311.117188 402.660156 309.855469 C 402.210938 309.40625 396.628906 308.957031 390.332031 308.777344 C 377.460938 308.507812 377.101562 308.328125 377.101562 302.03125 C 377.101562 299.152344 377.550781 297.980469 378.8125 297.261719 C 379.890625 296.722656 387.179688 296.363281 396.179688 296.363281 C 407.160156 296.363281 412.199219 296 412.917969 295.28125 C 414.359375 293.84375 414.359375 279.085938 412.917969 277.648438 C 411.210938 275.9375 359.730469 276.117188 358.292969 277.828125 Z M 358.292969 277.828125 " fill-opacity="1" fill-rule="nonzero"/><path fill="#000000" d="M 425.699219 278.277344 C 425.160156 279.449219 424.800781 293.933594 424.800781 319.125 C 424.800781 355.199219 424.890625 358.257812 426.417969 359.609375 C 427.679688 360.777344 431.460938 360.957031 451.257812 361.046875 C 479.878906 361.230469 478.796875 361.589844 478.796875 351.332031 C 478.796875 347.375 478.527344 343.59375 478.257812 342.785156 C 477.808594 341.527344 475.648438 341.34375 463.5 341.34375 C 455.667969 341.34375 448.199219 340.984375 446.9375 340.445312 L 444.597656 339.546875 L 444.597656 310.125 C 444.597656 293.84375 444.328125 279.71875 444.058594 278.546875 C 443.519531 276.660156 443.070312 276.570312 435.058594 276.570312 C 427.679688 276.570312 426.507812 276.75 425.699219 278.277344 Z M 425.699219 278.277344 " fill-opacity="1" fill-rule="nonzero"/><path fill="#000000" d="M 507.148438 278.636719 C 506.878906 279.71875 506.699219 295.011719 506.878906 312.554688 C 507.148438 343.503906 507.238281 344.585938 509.128906 348.183594 C 511.917969 353.492188 516.238281 357.449219 521.726562 359.96875 C 525.777344 361.859375 527.847656 362.128906 536.308594 362.128906 C 544.40625 362.128906 546.925781 361.769531 550.707031 360.238281 C 555.65625 358.078125 563.394531 350.523438 563.394531 347.824219 C 563.394531 346.921875 563.9375 345.664062 564.566406 345.125 C 565.375 344.222656 565.738281 336.128906 565.917969 312.285156 C 566.097656 294.921875 565.917969 279.71875 565.644531 278.546875 C 565.195312 276.570312 564.835938 276.480469 556.375 276.75 L 547.648438 277.019531 L 547.195312 305.808594 C 546.65625 336.398438 546.296875 339.007812 542.246094 341.707031 C 538.828125 343.953125 531.71875 343.59375 529.46875 341.074219 C 525.957031 337.207031 525.597656 334.058594 525.597656 306.167969 C 525.597656 291.503906 525.328125 278.816406 525.058594 278.007812 C 524.605469 276.839844 522.898438 276.570312 516.058594 276.570312 C 508.046875 276.570312 507.597656 276.660156 507.148438 278.636719 Z M 507.148438 278.636719 " fill-opacity="1" fill-rule="nonzero"/><path fill="#000000" d="M 580.226562 277.199219 C 579.867188 277.46875 579.597656 296.089844 579.597656 318.582031 C 579.597656 365.457031 578.425781 360.6875 589.765625 360.6875 C 594.984375 360.6875 596.964844 360.328125 597.597656 359.339844 C 598.046875 358.621094 598.496094 353.042969 598.496094 347.011719 C 598.496094 334.328125 598.585938 334.148438 606.777344 334.148438 C 613.707031 334.148438 624.144531 331.71875 628.195312 329.199219 C 635.214844 324.792969 638.09375 317.953125 638.09375 305.539062 C 638.09375 294.472656 636.386719 289.164062 630.894531 283.765625 C 625.046875 277.828125 619.285156 276.570312 597.503906 276.570312 C 588.324219 276.570312 580.496094 276.839844 580.226562 277.199219 Z M 615.59375 297.261719 C 618.117188 298.609375 619.464844 304.546875 618.296875 308.957031 C 617.125 313.367188 615.054688 314.355469 607.40625 314.355469 C 599.035156 314.355469 598.496094 313.816406 598.496094 305.359375 C 598.496094 299.511719 598.765625 298.070312 600.117188 297.351562 C 602.09375 296.179688 613.433594 296.089844 615.59375 297.261719 Z M 615.59375 297.261719 " fill-opacity="1" fill-rule="nonzero"/></svg>